<svg xmlns="http://www.w3.org/2000/svg" version="1.1" viewBox="-5.0 -10.0 110.0 135.0">
 <path d="m64.145 50 30.863-30.863c3.9062-3.9062 3.9062-10.238 0-14.145s-10.238-3.9062-14.145 0l-30.863 30.863-30.863-30.859c-3.9062-3.9062-10.238-3.9062-14.145 0s-3.9062 10.238 0 14.145l30.863 30.863-30.863 30.863c-3.9062 3.9062-3.9062 10.238 0 14.145 1.9531 1.9531 4.5117 2.9297 7.0703 2.9297s5.1172-0.97656 7.0703-2.9297l30.863-30.863 30.863 30.863c1.9531 1.9531 4.5117 2.9297 7.0703 2.9297 2.5586 0 5.1172-0.97656 7.0703-2.9297 3.9062-3.9062 3.9062-10.238 0-14.145l-30.863-30.863z"/></svg>