<svg xmlns="http://www.w3.org/2000/svg" version="1.1" viewBox="-5.0 -10.0 110.0 135.0">
 <path d="m57.145 30v-24.027l26.887 26.887h-24.027c-1.5703 0-2.8555-1.2852-2.8555-2.8555zm28.57 8.5703v48.57c0 4.7305-3.8438 8.5703-8.5703 8.5703l-54.289 0.003906c-4.7305 0-8.5703-3.8438-8.5703-8.5703v-74.289c0-4.7305 3.8438-8.5703 8.5703-8.5703h28.57v25.715c0 4.7305 3.8438 8.5703 8.5703 8.5703zm-55.715-2.8555c0 1.5703 1.2852 2.8555 2.8555 2.8555h10c1.5703 0 2.8555-1.2852 2.8555-2.8555 0-1.5703-1.2852-2.8555-2.8555-2.8555h-10c-1.5703 0-2.8555 1.2852-2.8555 2.8555zm40 37.141c0-1.5703-1.2852-2.8555-2.8555-2.8555h-34.285c-1.5703 0-2.8555 1.2852-2.8555 2.8555 0 1.5703 1.2852 2.8555 2.8555 2.8555h34.285c1.5703 0 2.8555-1.2852 2.8555-2.8555zm0-18.57c0-1.5703-1.2852-2.8555-2.8555-2.8555h-34.285c-1.5703 0-2.8555 1.2852-2.8555 2.8555 0 1.5703 1.2852 2.8555 2.8555 2.8555h34.285c1.5703 0 2.8555-1.2852 2.8555-2.8555z"/></svg>