<svg xmlns="http://www.w3.org/2000/svg" xmlns:xlink="http://www.w3.org/1999/xlink" version="1.1" x="0px" y="0px" viewBox="0 0 100 125" enable-background="new 0 0 100 100" xml:space="preserve"><g><path fill="none" stroke="#000000" stroke-width="3" stroke-miterlimit="10" d="M12.2,28.7"/></g><path d="M76.5,27.9L64,15.5l-3-3h-4.2H26c-3,0-5.5,2.5-5.5,5.5v64c0,3,2.5,5.5,5.5,5.5H74c3,0,5.5-2.5,5.5-5.5V35v-4.1L76.5,27.9z   M61.2,16.9L76,31.7H63.7c-1.4,0-2.5-1.1-2.5-2.5V16.9z M76.5,82c0,1.4-1.1,2.5-2.5,2.5H26c-1.4,0-2.5-1.1-2.5-2.5V18  c0-1.4,1.1-2.5,2.5-2.5h32.2v13.7c0,3,2.5,5.5,5.5,5.5h12.8V82z"/><path d="M66.5,47.8H33.5c-0.8,0-1.5-0.7-1.5-1.5s0.7-1.5,1.5-1.5h32.9c0.8,0,1.5,0.7,1.5,1.5S67.3,47.8,66.5,47.8z"/><path d="M66.5,61.5H33.5c-0.8,0-1.5-0.7-1.5-1.5s0.7-1.5,1.5-1.5h32.9c0.8,0,1.5,0.7,1.5,1.5S67.3,61.5,66.5,61.5z"/><path d="M66.5,75.3H33.5c-0.8,0-1.5-0.7-1.5-1.5s0.7-1.5,1.5-1.5h32.9c0.8,0,1.5,0.7,1.5,1.5S67.3,75.3,66.5,75.3z"/></svg>