<svg xmlns="http://www.w3.org/2000/svg" xmlns:xlink="http://www.w3.org/1999/xlink" viewBox="0 0 100 125" version="1.1" x="0px" y="0px"><title>10.5</title><desc>Created with Sketch.</desc><g stroke="none" stroke-width="1" fill="none" fill-rule="evenodd"><g fill-rule="nonzero" fill="#000000"><path d="M14,19 L27.1897503,19 L27.1897503,19 C28.3594328,19 29.4920973,19.4100811 30.3906723,20.1588936 L34.7218655,23.7682213 L34.7218655,23.7682213 C34.9015805,23.9179838 35.1281134,24 35.3620499,24 L76,24 L76,24 C78.7614237,24 81,26.2385763 81,29 L81,38 C81,38.5522847 81.4477153,39 82,39 L86,39 C88.1811346,39 89.9492936,40.768159 89.9492936,42.9492936 C89.9492936,43.2573511 89.9132498,43.5643508 89.8418974,43.8640311 L81.9147375,77.1581026 C81.3784659,79.410443 79.3660086,81 77.0507064,81 L14,81 C11.2385763,81 9,78.7614237 9,76 L9,24 L9,24 C9,21.2385763 11.2385763,19 14,19 L14,19 Z M84.3765045,45.2316481 L84.3765045,45.2316481 C84.3945733,45.155759 84.4036999,45.0780163 84.4036982,45.0000058 C84.4036862,44.4477211 83.9559612,44.0000156 83.4036764,44.0000276 L83.4036764,44.0000276 L26.6794815,44.0012642 C25.7758952,44.0012839 24.9845522,44.607157 24.7487983,45.4794461 L16.8407862,74.739091 C16.817796,74.8241548 16.8061496,74.9118841 16.8061496,75 C16.8061496,75.5522847 17.2538649,76 17.8061496,76 L76.2608477,76 C76.7239081,76 77.1263996,75.6820886 77.2336539,75.2316205 L77.2336539,75.2316205 L84.3765045,45.2316481 Z M15,24 L15,24.0000439 C14.4477324,24.0000439 14.0000242,24.4477324 14,25 L13.9999561,25 L13.9982563,63.7433327 C13.9982484,63.9240598 14.1194254,64.0823423 14.2938927,64.1294957 C14.5071549,64.1871341 14.7267632,64.0609761 14.7844016,63.8477139 L14.7844016,63.8477139 L20.5012284,42.6954549 C21.0906235,40.5146929 23.0690391,39 25.3280454,39 L25.3280454,39 L75,39 C75.5522847,39 76,38.5522847 76,38 L76,30 C76,29.4477153 75.5522847,29 75,29 L35,29 C33.8303175,29 32.697653,28.5899189 31.799078,27.8411064 L27.4678848,24.2317787 C27.2881698,24.0820162 27.0616369,24 26.8277004,24 L26.8277004,24 L15,24 Z"/></g></g></svg>