<svg xmlns="http://www.w3.org/2000/svg" version="1.1" viewBox="-5.0 -10.0 110.0 135.0">
 <path d="m90.086 37.758v-6.9922c0-3.7539-3.043-6.8008-6.8008-6.8008h-24.578c-1.6484 0-3.1836-0.85156-4.0586-2.25l-3.4844-5.5742c-0.96875-1.5469-2.6641-2.4883-4.4883-2.4883h-31.469c-2.9219 0-5.293 2.3711-5.293 5.293v18.812c-3.0039 0.78516-5.1562 3.6133-4.8906 6.8633l3.0195 37.305c0.20312 2.4961 2.2891 4.4219 4.793 4.4219h74.328c2.5039 0 4.5898-1.9219 4.793-4.4219l3.0195-37.305c0.26172-3.25-1.8867-6.082-4.8906-6.8633zm-74.18-6.2539h68.184c0.41016 0 0.74219 0.33203 0.74219 0.74219v5.2773h-69.664v-5.2773c0-0.41016 0.33203-0.74219 0.74219-0.74219z"/>
</svg>