<svg xmlns="http://www.w3.org/2000/svg" viewBox="0 0 32 40" x="0px" y="0px"><path d="M26.995,2.005H4.995c-1.65,0-3,1.34-3,3V27.005c0,1.65,1.35,3,3,3H26.995c1.66,0,3-1.35,3-3V5.005c0-1.66-1.34-3-3-3ZM14.915,20.315c0,.55-.45,1-1,1-.5,0-.91-.36-.98-.84l-5.02,5.02c-.19,.2-.45,.3-.71,.3-.25,0-.51-.1-.7-.3-.39-.39-.39-1.02,0-1.41l5.02-5.02c-.48-.07-.84-.48-.84-.98,0-.55,.45-1,1-1h2.23c.13,0,.25,.03,.37,.08,.05,.02,.11,.04,.16,.08,.04,.03,.09,.07,.13,.11,.06,.05,.11,.11,.15,.17-.03-.05-.07-.1-.11-.14,.05,.04,.1,.1,.13,.15q-.01-.01-.02-.01c.05,.06,.09,.12,.11,.19,.02,.06,.04,.12,.05,.19,.01,.04,.02,.08,.02,.12,0,.02,.01,.04,.01,.06v2.23ZM25.495,7.915l-5.02,5.02c.48,.07,.84,.49,.84,.98,0,.55-.45,1-1,1h-2.23c-.21,0-.4-.06-.56-.17-.1-.07-.2-.17-.27-.27v-.01c-.03-.06-.06-.12-.09-.18-.03-.08-.05-.16-.06-.24,0-.02-.01-.05-.01-.07s-.01-.04-.01-.06v-2.23c0-.55,.45-1,1-1,.5,0,.91,.36,.98,.84l5.02-5.02c.39-.39,1.02-.39,1.41,0s.39,1.02,0,1.41Z"/></svg>