<svg xmlns="http://www.w3.org/2000/svg" version="1.1" viewBox="-5.0 -10.0 110.0 135.0">
 <path d="m85.938 6.2461c2.0703 0 4.0586 0.82422 5.5234 2.293 1.4648 1.4609 2.2891 3.4492 2.2891 5.5234v71.875c0 2.0703-0.82422 4.0586-2.2891 5.5234-1.4648 1.4648-3.4531 2.2891-5.5234 2.2891h-71.875c-2.0703 0-4.0586-0.82422-5.5234-2.2891-1.4648-1.4648-2.2891-3.4531-2.2891-5.5234v-71.875c0-2.0742 0.82422-4.0625 2.2891-5.5234 1.4648-1.4688 3.4531-2.293 5.5234-2.293zm-39.527 25.848 21.57 21.516c2.2383 2.2305 5.5938 2.8945 8.5117 1.6836 2.918-1.2109 4.8203-4.0586 4.8203-7.2148v-21.516c0-4.3164-3.4961-7.8125-7.8125-7.8125h-21.57c-3.1602 0-6.0117 1.9023-7.2188 4.8242-1.207 2.9258-0.53906 6.2852 1.6992 8.5195zm4.418-4.4258c-0.44922-0.44922-0.58203-1.1211-0.34375-1.7031 0.24609-0.58594 0.8125-0.96484 1.4453-0.96484h21.57c0.85938 0 1.5625 0.69922 1.5625 1.5625v21.516c0 0.62891-0.38281 1.2031-0.96484 1.4414-0.58203 0.24219-1.2578 0.10938-1.6992-0.33594zm2.7891 40.238-21.57-21.516c-2.2344-2.2344-5.5938-2.8945-8.5078-1.6875-2.918 1.2148-4.8203 4.0586-4.8203 7.2188v21.516c0 4.3125 3.4961 7.8086 7.8125 7.8086h21.57c3.1602 0 6.0117-1.9023 7.2188-4.8242 1.207-2.9219 0.53516-6.2852-1.7031-8.5156zm-4.4141 4.4219c0.44922 0.44922 0.58203 1.1211 0.34375 1.7031-0.24609 0.58594-0.81641 0.96484-1.4453 0.96484h-21.57c-0.86328 0-1.5625-0.69531-1.5625-1.5586v-21.516c0-0.63281 0.38281-1.2031 0.96094-1.4453 0.58594-0.24219 1.2578-0.10937 1.7031 0.33594z" fill-rule="evenodd"/></svg>